<?xml version="1.0" standalone="no"?>
<!DOCTYPE svg PUBLIC "-//W3C//DTD SVG 20010904//EN"
 "http://www.w3.org/TR/2001/REC-SVG-20010904/DTD/svg10.dtd">
<svg version="1.0" xmlns="http://www.w3.org/2000/svg"
 width="1024.000000pt" height="1024.000000pt" viewBox="0 0 1024.000000 1024.000000"
 preserveAspectRatio="xMidYMid meet">
<metadata>
Created by potrace 1.11, written by Peter Selinger 2001-2013
</metadata>
<g transform="translate(0.000000,1024.000000) scale(0.100000,-0.100000)"
fill="#000000" stroke="none">
<path d="M5274 7950 c-286 -24 -540 -75 -794 -160 -478 -159 -860 -396 -1196
-743 -423 -435 -677 -971 -755 -1592 -17 -129 -17 -531 0 -660 67 -536 271
-1026 597 -1435 96 -120 330 -350 455 -447 641 -497 1466 -712 2315 -603 590
76 1182 293 1657 607 l127 85 0 1054 0 1054 -465 0 -465 0 0 -759 0 -759 -62
-35 c-178 -99 -510 -223 -713 -267 -456 -98 -900 -49 -1303 145 -214 103 -389
231 -557 407 -422 442 -595 1057 -470 1672 164 813 842 1402 1712 1487 548 54
1182 -150 1656 -534 l106 -87 239 308 c131 169 267 344 302 390 l64 83 -29 25
c-173 144 -390 285 -604 393 -375 189 -748 303 -1171 356 -148 19 -504 27
-646 15z"/>
</g>
</svg>
